 <svg width="32" height="32" viewBox="0 0 32 32" fill="none" xmlns="http://www.w3.org/2000/svg">
                    <rect width="32" height="32" rx="16" fill="white"/>
                    <rect width="16" height="16" transform="translate(8 8)" fill="white"/>
                    <path d="M21.7141 11.3018C20.9713 10.5541 19.9865 10.0995 18.9387 10.0207C17.891 9.94192 16.85 10.2441 16.0049 10.8724C15.1147 10.2061 14.0067 9.90396 12.904 10.0268C11.8013 10.1497 10.7858 10.6884 10.0621 11.5346C9.33828 12.3807 8.95999 13.4713 9.00336 14.5869C9.04672 15.7024 9.50852 16.76 10.2958 17.5467L15.5082 22.7917C15.5732 22.8577 15.6506 22.9101 15.7359 22.9459C15.8211 22.9816 15.9126 23 16.0049 23C16.0973 23 16.1887 22.9816 16.274 22.9459C16.3593 22.9101 16.4367 22.8577 16.5017 22.7917L21.7141 17.5467C22.1218 17.1367 22.4452 16.6499 22.6658 16.1142C22.8864 15.5784 23 15.0042 23 14.4242C23 13.8443 22.8864 13.27 22.6658 12.7343C22.4452 12.1985 22.1218 11.7118 21.7141 11.3018ZM20.7276 16.554L16.0049 21.2992L11.2823 16.554C10.8661 16.1334 10.5826 15.5986 10.4673 15.0166C10.3521 14.4345 10.4102 13.8312 10.6344 13.2823C10.8585 12.7333 11.2388 12.2633 11.7275 11.931C12.2162 11.5987 12.7915 11.419 13.3812 11.4145C14.1691 11.4164 14.924 11.7329 15.4802 12.2945C15.5452 12.3605 15.6226 12.4129 15.7079 12.4486C15.7931 12.4844 15.8846 12.5028 15.977 12.5028C16.0693 12.5028 16.1608 12.4844 16.246 12.4486C16.3313 12.4129 16.4087 12.3605 16.4737 12.2945C17.0463 11.7953 17.7859 11.5336 18.543 11.5623C19.3 11.5911 20.0179 11.9082 20.5514 12.4495C21.0849 12.9908 21.3941 13.7159 21.4164 14.4779C21.4387 15.2399 21.1725 15.982 20.6716 16.554H20.7276Z" fill="#7E33E0"/>
</svg>