  <svg width="32" height="32" viewBox="0 0 32 32" fill="none" xmlns="http://www.w3.org/2000/svg" >
                    <rect width="32" height="32" rx="16" fill="white"/>
                    <rect width="16" height="16" transform="translate(8 8)" fill="white"/>
                    <path d="M8.99902 9.5991C8.99902 9.43995 9.06225 9.28732 9.17478 9.17478C9.28732 9.06225 9.43995 8.99902 9.5991 8.99902H10.0456C10.8057 8.99902 11.2617 9.51029 11.5218 9.98555C11.6954 10.3024 11.821 10.6696 11.9194 11.0025C11.946 11.0004 11.9727 10.9993 11.9994 10.9993H21.9991C22.6632 10.9993 23.1433 11.6346 22.9608 12.2739L21.4983 17.4017C21.3671 17.8617 21.0897 18.2664 20.708 18.5545C20.3263 18.8427 19.8611 18.9986 19.3828 18.9987H14.6238C14.1417 18.9988 13.673 18.8405 13.2896 18.5482C12.9063 18.2559 12.6295 17.8458 12.5019 17.3809L11.8938 15.163L10.8857 11.7642L10.8849 11.7578C10.7601 11.3041 10.6432 10.8793 10.4688 10.5624C10.3016 10.2544 10.1672 10.1992 10.0464 10.1992H9.5991C9.43995 10.1992 9.28732 10.136 9.17478 10.0234C9.06225 9.91089 8.99902 9.75825 8.99902 9.5991ZM13.058 14.8718L13.6588 17.0633C13.7788 17.4969 14.1733 17.7986 14.6238 17.7986H19.3828C19.6002 17.7986 19.8116 17.7277 19.9852 17.5968C20.1587 17.4658 20.2849 17.2819 20.3445 17.0729L21.7343 12.1994H12.2675L13.0468 14.8294L13.058 14.8718Z" fill="#7E33E0"/>
                    <path d="M15.8 21.4007C15.8 21.8251 15.6314 22.2322 15.3313 22.5323C15.0312 22.8324 14.6242 23.001 14.1998 23.001C13.7754 23.001 13.3684 22.8324 13.0683 22.5323C12.7682 22.2322 12.5996 21.8251 12.5996 21.4007C12.5996 20.9763 12.7682 20.5693 13.0683 20.2692C13.3684 19.9691 13.7754 19.8005 14.1998 19.8005C14.6242 19.8005 15.0312 19.9691 15.3313 20.2692C15.6314 20.5693 15.8 20.9763 15.8 21.4007ZM14.5999 21.4007C14.5999 21.2946 14.5577 21.1929 14.4827 21.1179C14.4077 21.0428 14.3059 21.0007 14.1998 21.0007C14.0937 21.0007 13.992 21.0428 13.9169 21.1179C13.8419 21.1929 13.7998 21.2946 13.7998 21.4007C13.7998 21.5068 13.8419 21.6086 13.9169 21.6836C13.992 21.7587 14.0937 21.8008 14.1998 21.8008C14.3059 21.8008 14.4077 21.7587 14.4827 21.6836C14.5577 21.6086 14.5999 21.5068 14.5999 21.4007Z" fill="#7E33E0"/>
                    <path d="M21.4006 21.4007C21.4006 21.8251 21.232 22.2322 20.9319 22.5323C20.6318 22.8324 20.2248 23.001 19.8004 23.001C19.376 23.001 18.969 22.8324 18.6689 22.5323C18.3688 22.2322 18.2002 21.8251 18.2002 21.4007C18.2002 20.9763 18.3688 20.5693 18.6689 20.2692C18.969 19.9691 19.376 19.8005 19.8004 19.8005C20.2248 19.8005 20.6318 19.9691 20.9319 20.2692C21.232 20.5693 21.4006 20.9763 21.4006 21.4007ZM20.2005 21.4007C20.2005 21.2946 20.1583 21.1929 20.0833 21.1179C20.0083 21.0428 19.9065 21.0007 19.8004 21.0007C19.6943 21.0007 19.5925 21.0428 19.5175 21.1179C19.4425 21.1929 19.4004 21.2946 19.4004 21.4007C19.4004 21.5068 19.4425 21.6086 19.5175 21.6836C19.5925 21.7587 19.6943 21.8008 19.8004 21.8008C19.9065 21.8008 20.0083 21.7587 20.0833 21.6836C20.1583 21.6086 20.2005 21.5068 20.2005 21.4007Z" fill="#7E33E0"/>
                </svg>